<svg width="512" height="512" viewBox="0 0 512 512" xmlns="http://www.w3.org/2000/svg" role="img" aria-label="Sergeant Goose">
  <defs>
    <linearGradient id="g2" x1="0" y1="0" x2="0" y2="1">
      <stop offset="0" stop-color="#e7fde9"/>
      <stop offset="1" stop-color="#d3f7d8"/>
    </linearGradient>
  </defs>
  <circle cx="256" cy="256" r="230" fill="url(#g2)"/>
  <!-- body -->
  <ellipse cx="256" cy="310" rx="120" ry="140" fill="#ffffff" stroke="#2e7d32" stroke-width="6"/>
  <!-- neck -->
  <rect x="238" y="200" width="36" height="70" rx="18" fill="#ffffff" stroke="#2e7d32" stroke-width="6"/>
  <!-- head -->
  <circle cx="256" cy="180" r="44" fill="#ffffff" stroke="#2e7d32" stroke-width="6"/>
  <!-- beak -->
  <path d="M300 180c20 4 36 6 52 5-10 16-36 22-52 12z" fill="#f6a21a" stroke="#b56d12" stroke-width="4"/>
  <!-- eyes -->
  <circle cx="245" cy="175" r="6" fill="#0f172a"/>
  <circle cx="270" cy="175" r="6" fill="#0f172a"/>
  <!-- campaign hat -->
  <ellipse cx="256" cy="155" rx="70" ry="16" fill="#1b5e20"/>
  <path d="M206 155c14-22 34-38 50-42 16 4 36 20 50 42z" fill="#114a16"/>
  <rect x="246" y="132" width="20" height="10" fill="#e6b800"/>
  <!-- rank chevrons (3 upward) -->
  <path d="M220 355l20-28 20 28" fill="none" stroke="#1b5e20" stroke-width="8" stroke-linecap="round" stroke-linejoin="round"/>
  <path d="M220 330l20-28 20 28" fill="none" stroke="#1b5e20" stroke-width="8" stroke-linecap="round" stroke-linejoin="round"/>
  <path d="M220 305l20-28 20 28" fill="none" stroke="#1b5e20" stroke-width="8" stroke-linecap="round" stroke-linejoin="round"/>
</svg>
